<svg id="visual" viewBox="0 0 900 600" width="900" height="600" xmlns="http://www.w3.org/2000/svg" xmlns:xlink="http://www.w3.org/1999/xlink" version="1.1"><rect x="0" y="0" width="900" height="600" fill="#b16a00"></rect><defs><linearGradient id="grad1_0" x1="33.3%" y1="100%" x2="100%" y2="0%"><stop offset="20%" stop-color="#cf7c00" stop-opacity="1"></stop><stop offset="80%" stop-color="#cf7c00" stop-opacity="1"></stop></linearGradient></defs><defs><linearGradient id="grad1_1" x1="33.3%" y1="100%" x2="100%" y2="0%"><stop offset="20%" stop-color="#cf7c00" stop-opacity="1"></stop><stop offset="80%" stop-color="#b16a00" stop-opacity="1"></stop></linearGradient></defs><defs><linearGradient id="grad2_0" x1="0%" y1="100%" x2="66.7%" y2="0%"><stop offset="20%" stop-color="#cf7c00" stop-opacity="1"></stop><stop offset="80%" stop-color="#cf7c00" stop-opacity="1"></stop></linearGradient></defs><defs><linearGradient id="grad2_1" x1="0%" y1="100%" x2="66.7%" y2="0%"><stop offset="20%" stop-color="#b16a00" stop-opacity="1"></stop><stop offset="80%" stop-color="#cf7c00" stop-opacity="1"></stop></linearGradient></defs><g transform="translate(900, 600)"><path d="M-513.8 0C-486.7 -63.2 -459.6 -126.5 -425.9 -176.4C-392.2 -226.3 -352 -262.9 -316.1 -316.1C-280.2 -369.2 -248.6 -439 -196.6 -474.7C-144.7 -510.4 -72.3 -512.1 0 -513.8L0 0Z" fill="#c07300"></path><path d="M-256.9 0C-243.3 -31.6 -229.8 -63.2 -213 -88.2C-196.1 -113.2 -176 -131.5 -158 -158C-140.1 -184.6 -124.3 -219.5 -98.3 -237.3C-72.3 -255.2 -36.2 -256 0 -256.9L0 0Z" fill="#cf7c00"></path></g><g transform="translate(0, 0)"><path d="M513.8 0C447.2 39.8 380.6 79.6 367.7 152.3C354.8 225 395.7 330.6 363.3 363.3C331 396 225.4 355.7 152.7 368.6C79.9 381.6 40 447.7 0 513.8L0 0Z" fill="#c07300"></path><path d="M256.9 0C223.6 19.9 190.3 39.8 183.9 76.2C177.4 112.5 197.8 165.3 181.7 181.7C165.5 198 112.7 177.9 76.3 184.3C40 190.8 20 223.8 0 256.9L0 0Z" fill="#cf7c00"></path></g></svg>