<svg id="visual" viewBox="0 0 960 540" width="960" height="540" xmlns="http://www.w3.org/2000/svg" xmlns:xlink="http://www.w3.org/1999/xlink" version="1.1"><rect x="0" y="0" width="960" height="540" fill="#000"></rect><defs><linearGradient id="grad1_0" x1="43.8%" y1="0%" x2="100%" y2="100%"><stop offset="14.444444444444446%" stop-color="#000000" stop-opacity="1"></stop><stop offset="85.55555555555554%" stop-color="#000000" stop-opacity="1"></stop></linearGradient></defs><defs><linearGradient id="grad2_0" x1="0%" y1="0%" x2="56.3%" y2="100%"><stop offset="14.444444444444446%" stop-color="#000000" stop-opacity="1"></stop><stop offset="85.55555555555554%" stop-color="#000000" stop-opacity="1"></stop></linearGradient></defs><g transform="translate(960, 0)"><path d="M0 324C-62.2 318.7 -124.4 313.4 -162 280.6C-199.6 247.8 -212.7 187.4 -235.6 136C-258.5 84.6 -291.2 42.3 -324 0L0 0Z" fill="#0099ff"></path></g><g transform="translate(0, 540)"><path d="M0 -324C43.4 -293.1 86.8 -262.2 138 -239C189.2 -215.9 248.3 -200.5 280.6 -162C312.9 -123.5 318.4 -61.7 324 0L0 0Z" fill="#0099ff"></path></g></svg>