<svg id="visual" viewBox="0 0 960 540" width="960" height="540" xmlns="http://www.w3.org/2000/svg" xmlns:xlink="http://www.w3.org/1999/xlink" version="1.1"><rect x="0" y="0" width="960" height="540" fill="#000"></rect><defs><linearGradient id="grad1_0" x1="43.8%" y1="100%" x2="100%" y2="0%"><stop offset="14.444444444444446%" stop-color="#000000" stop-opacity="1"></stop><stop offset="85.55555555555554%" stop-color="#000000" stop-opacity="1"></stop></linearGradient></defs><defs><linearGradient id="grad2_0" x1="0%" y1="100%" x2="56.3%" y2="0%"><stop offset="14.444444444444446%" stop-color="#000000" stop-opacity="1"></stop><stop offset="85.55555555555554%" stop-color="#000000" stop-opacity="1"></stop></linearGradient></defs><g transform="translate(960, 540)"><path d="M-324 0C-318.7 -62.2 -313.4 -124.4 -280.6 -162C-247.8 -199.6 -187.4 -212.7 -136 -235.6C-84.6 -258.5 -42.3 -291.2 0 -324L0 0Z" fill="#0099ff"></path></g><g transform="translate(0, 0)"><path d="M324 0C293.1 43.4 262.2 86.8 239 138C215.9 189.2 200.5 248.3 162 280.6C123.5 312.9 61.7 318.4 0 324L0 0Z" fill="#0099ff"></path></g></svg>